<?xml version="1.0" encoding="UTF-8"?>
<svg version="1.1" xmlns="http://www.w3.org/2000/svg" width="1810" height="448">
<path d="M0 0 C597.3 0 1194.6 0 1810 0 C1810 147.84 1810 295.68 1810 448 C1212.7 448 615.4 448 0 448 C0 300.16 0 152.32 0 0 Z " fill="#FEFEFE" transform="translate(0,0)"/>
<path d="M0 0 C6.06142354 2.02047451 11.58890325 4.05310367 17.27734375 6.80859375 C18.03683319 7.17102173 18.79632263 7.53344971 19.5788269 7.90686035 C21.19633442 8.67930666 22.81274828 9.45404674 24.4281311 10.23092651 C28.70995358 12.28974436 33.00023076 14.33083546 37.2890625 16.375 C38.13767349 16.78008286 38.98628448 17.18516571 39.86061096 17.6025238 C46.48863501 20.76438685 53.13876112 23.87310145 59.8125 26.9375 C60.80435303 27.39342529 61.79620605 27.84935059 62.81811523 28.3190918 C64.9680059 29.30716864 67.11799448 30.29503249 69.26806641 31.28271484 C77.18563823 34.92345276 85.09244353 38.58757566 93 42.25 C93.87823425 42.65669922 94.75646851 43.06339844 95.66131592 43.48242188 C107.77292204 49.09295551 119.8652034 54.74290286 131.9375 60.4375 C144.66336569 66.44028059 157.4219505 72.36727519 170.20361328 78.25048828 C178.14061825 81.90643187 186.0704847 85.57784741 194 89.25 C194.8778717 89.65651794 195.75574341 90.06303589 196.66021729 90.48187256 C209.47392795 96.41766801 222.26475501 102.40027484 235.0355835 108.42773438 C245.59197154 113.40992441 256.17164803 118.33687961 266.78491211 123.19702148 C272.24320679 125.70170331 277.64624819 128.27861547 283 131 C282 133 282 133 279.83300781 133.86621094 C278.88264648 134.15270508 277.93228516 134.43919922 276.953125 134.734375 C275.89206543 135.05784912 274.83100586 135.38132324 273.73779297 135.71459961 C272.58682129 136.05628174 271.43584961 136.39796387 270.25 136.75 C269.06422363 137.10779541 267.87844727 137.46559082 266.65673828 137.83422852 C256.13420637 140.9955133 245.57924844 144.03489949 235 147 C229.72902893 148.47867629 224.45816911 149.95774775 219.1875 151.4375 C218.49831482 151.63090973 217.80912964 151.82431946 217.09906006 152.02359009 C205.33552473 155.3261519 193.59788848 158.71147216 181.87548828 162.15722656 C178.9172292 163.0242592 175.95698624 163.88419345 172.99609375 164.7421875 C163.0809543 167.61742615 153.1831007 170.53762507 143.3125 173.5625 C130.15259546 177.58922862 116.93467583 181.38083265 103.66015625 185.01171875 C102.70345032 185.27380379 102.70345032 185.27380379 101.72741699 185.54118347 C98.58560552 186.40174147 95.44292292 187.2587475 92.29833984 188.10913086 C85.72675992 189.90307831 79.26494429 191.87689653 72.81665039 194.07128906 C68.50606632 195.49258245 64.13763428 196.65601163 59.75 197.8125 C51.78391562 199.94871822 43.85118268 202.17715144 35.9375 204.5 C34.9482251 204.78987793 33.9589502 205.07975586 32.93969727 205.37841797 C30.95387169 205.96054586 28.96811285 206.54290143 26.98242188 207.12548828 C22.05308307 208.57087888 17.12207859 210.01009648 12.1875 211.4375 C11.30376709 211.69660156 10.42003418 211.95570313 9.50952148 212.22265625 C8.69555908 212.45726562 7.88159668 212.691875 7.04296875 212.93359375 C5.97598755 213.2438147 5.97598755 213.2438147 4.88745117 213.56030273 C3 214 3 214 0 214 C0 143.38 0 72.76 0 0 Z " fill="#4291A2" transform="translate(0,15)"/>
<path d="M0 0 C1.5033433 3.92553398 0.48006988 7.3095398 -0.484375 11.234375 C-0.65552322 11.96325424 -0.82667145 12.69213348 -1.00300598 13.44309998 C-1.37851116 15.03735352 -1.75824153 16.6306163 -2.14163208 18.22299194 C-2.76130376 20.79695297 -3.3702216 23.37325013 -3.97631836 25.95043945 C-4.85263087 29.67490983 -5.73269276 33.39846734 -6.61474609 37.12158203 C-8.98022426 47.13207498 -11.26779546 57.1605998 -13.5625 67.1875 C-13.91374939 68.71994858 -13.91374939 68.71994858 -14.27209473 70.28335571 C-17.55410859 84.60241906 -20.78782793 98.93120484 -23.95922852 113.27514648 C-25.75135014 121.38043024 -27.55360139 129.4832692 -29.375 137.58203125 C-29.69013046 138.98326736 -29.69013046 138.98326736 -30.0116272 140.41281128 C-30.89716999 144.3494104 -31.78297972 148.28594934 -32.66912842 152.22241211 C-35.69494764 165.66844552 -38.69552525 179.11986102 -41.67371368 192.57651138 C-42.22474936 195.06602718 -42.77611049 197.55547067 -43.32757568 200.04489136 C-43.69495171 201.70342897 -44.06232232 203.36196779 -44.4296875 205.02050781 C-44.6114365 205.84102945 -44.7931855 206.66155109 -44.98044205 207.50693703 C-46.07320109 212.44162339 -47.16345745 217.37685523 -48.25203896 222.31246471 C-48.93426767 225.4031802 -49.61864647 228.4934168 -50.30356979 231.58353615 C-50.62533091 233.03748585 -50.94614575 234.4916453 -51.26597977 235.94602013 C-51.70566602 237.94493365 -52.14888066 239.94307009 -52.59228516 241.94116211 C-52.84112457 243.06799911 -53.08996399 244.19483612 -53.34634399 245.3558197 C-54 248 -54 248 -55 250 C-127.93 250 -200.86 250 -276 250 C-273.53338733 247.53338733 -271.1898448 245.24699422 -268.5625 243 C-264.80417866 239.74044654 -261.14631038 236.38335781 -257.5 233 C-253.43995088 229.23435773 -249.34588215 225.52779643 -245.15625 221.90625 C-242.22759638 219.31715042 -239.36601823 216.65805319 -236.5 214 C-232.43985037 210.2344644 -228.34588598 206.52779974 -224.15625 202.90625 C-221.22759638 200.31715042 -218.36601823 197.65805319 -215.5 195 C-211.43985037 191.2344644 -207.34588598 187.52779974 -203.15625 183.90625 C-200.22759638 181.31715042 -197.36601823 178.65805319 -194.5 176 C-191.03712954 172.78840358 -187.57351686 169.5889722 -184 166.5 C-179.88795707 162.94316962 -175.9123038 159.24416316 -171.92456055 155.54956055 C-166.99335742 150.98389615 -162.00693471 146.48247674 -157 142 C-151.59662142 137.15529061 -146.21635577 132.28790925 -140.875 127.375 C-137.63782784 124.39781719 -134.38862271 121.44047144 -131.0625 118.5625 C-126.87890143 114.93787911 -122.8356539 111.16614933 -118.77758789 107.40258789 C-115.28928664 104.17324129 -111.7526582 101.01500963 -108.15625 97.90625 C-105.22759638 95.31715042 -102.36601823 92.65805319 -99.5 90 C-96.03712954 86.78840358 -92.57351686 83.5889722 -89 80.5 C-84.88795707 76.94316962 -80.9123038 73.24416316 -76.92456055 69.54956055 C-71.99335742 64.98389615 -67.00693471 60.48247674 -62 56 C-56.59662142 51.15529061 -51.21635577 46.28790925 -45.875 41.375 C-42.63782784 38.39781719 -39.38862271 35.44047144 -36.0625 32.5625 C-32.4704131 29.45035791 -28.98449863 26.2312604 -25.5 23 C-21.40431304 19.20230817 -17.2798406 15.45472267 -13.0546875 11.80078125 C-8.64337751 7.93459512 -4.33041542 3.95628027 0 0 Z " fill="#4291A2" transform="translate(304,198)"/>
<path d="M0 0 C-2.49782573 2.35648224 -4.99866815 4.70974016 -7.5 7.0625 C-8.19609375 7.71927734 -8.8921875 8.37605469 -9.609375 9.05273438 C-13.71995159 12.91591515 -17.89180095 16.68742009 -22.15136719 20.38549805 C-24.76837735 22.67106173 -27.32102002 25.01911265 -29.875 27.375 C-36.0131436 33.02349112 -42.2116808 38.60273311 -48.421875 44.171875 C-53.01448104 48.29644476 -57.58179449 52.44621893 -62.125 56.625 C-65.36217216 59.60218281 -68.61137729 62.55952856 -71.9375 65.4375 C-76.06755185 69.01802312 -80.0660407 72.73579762 -84.07519531 76.45019531 C-89.00645654 81.01596642 -93.99297968 85.51744662 -99 90 C-104.40337858 94.84470939 -109.78364423 99.71209075 -115.125 104.625 C-118.36217216 107.60218281 -121.61137729 110.55952856 -124.9375 113.4375 C-129.12109857 117.06212089 -133.1643461 120.83385067 -137.22241211 124.59741211 C-140.71071336 127.82675871 -144.2473418 130.98499037 -147.84375 134.09375 C-150.77240362 136.68284958 -153.63398177 139.34194681 -156.5 142 C-159.96287046 145.21159642 -163.42648314 148.4110278 -167 151.5 C-171.11204293 155.05683038 -175.0876962 158.75583684 -179.07543945 162.45043945 C-184.00664258 167.01610385 -188.99306529 171.51752326 -194 176 C-199.40337858 180.84470939 -204.78364423 185.71209075 -210.125 190.625 C-213.36217216 193.60218281 -216.61137729 196.55952856 -219.9375 199.4375 C-224.12109857 203.06212089 -228.1643461 206.83385067 -232.22241211 210.59741211 C-235.71071336 213.82675871 -239.2473418 216.98499037 -242.84375 220.09375 C-245.77240362 222.68284958 -248.63398177 225.34194681 -251.5 228 C-255.56014963 231.7655356 -259.65411402 235.47220026 -263.84375 239.09375 C-266.77240965 241.68285491 -269.63380098 244.34213345 -272.5 247 C-286.53418272 260 -286.53418272 260 -288 260 C-288 201.26 -288 142.52 -288 82 C-280.08 79.69 -272.16 77.38 -264 75 C-259.21200468 73.60044939 -259.21200468 73.60044939 -254.42407227 72.20068359 C-245.10315632 69.47681866 -235.77348959 66.78619209 -226.43408203 64.12646484 C-219.79825875 62.23430218 -213.1765582 60.29728734 -206.55859375 58.34375 C-192.53657396 54.20579647 -178.4965337 50.13123936 -164.43579102 46.12695312 C-157.79939854 44.23462564 -151.17712654 42.29745511 -144.55859375 40.34375 C-130.53657396 36.20579647 -116.4965337 32.13123936 -102.43579102 28.12695312 C-95.79939854 26.23462564 -89.17712654 24.29745511 -82.55859375 22.34375 C-68.54392444 18.20796563 -54.5116171 14.13406539 -40.45776367 10.13354492 C-34.98479154 8.57350435 -29.52066019 6.98605367 -24.0625 5.375 C-23.37929688 5.17422852 -22.69609375 4.97345703 -21.9921875 4.76660156 C-18.62673581 3.77743164 -15.26452675 2.77889816 -11.90625 1.765625 C-10.62506408 1.3852008 -9.34381699 1.00498251 -8.0625 0.625 C-6.93972656 0.28726563 -5.81695312 -0.05046875 -4.66015625 -0.3984375 C-2 -1 -2 -1 0 0 Z " fill="#4291A2" transform="translate(288,176)"/>
<path d="M0 0 C2.72410759 3.24946078 4.89448335 6.40525296 6.8125 10.18359375 C7.32385498 11.18124756 7.83520996 12.17890137 8.36206055 13.20678711 C8.90258057 14.27292236 9.44310059 15.33905762 10 16.4375 C14.134408 24.49243734 18.31812039 32.50746328 22.6875 40.4375 C27.84875977 49.82359212 32.87407042 59.27791028 37.875 68.75 C43.78102204 79.93479206 49.72458504 91.09669557 55.73730469 102.22460938 C60.40813177 110.87787452 65.02033855 119.56143179 69.625 128.25 C74.34408432 137.15400157 79.08650785 146.04190077 83.9375 154.875 C89.78677714 165.5302413 95.45968683 176.27682027 101.13623047 187.0246582 C106.08176893 196.38679948 111.05563416 205.73301742 116.0625 215.0625 C124.98396073 231.69591117 124.98396073 231.69591117 128.4375 238.1875 C128.99546265 239.23079468 128.99546265 239.23079468 129.56469727 240.29516602 C132 244.88401575 132 244.88401575 132 246 C69.96 246 7.92 246 -56 246 C-50 218 -50 218 -47 207 C-46.28856669 203.87449144 -45.60005835 200.75472291 -44.94921875 197.6171875 C-44.57972268 195.86725801 -44.21017319 194.11733981 -43.84057617 192.36743164 C-43.65224213 191.46993195 -43.46390808 190.57243225 -43.26986694 189.6477356 C-40.34875858 175.73990439 -37.33854451 161.87209652 -33.95336914 148.0690918 C-32.4019202 141.72954109 -30.98745552 135.3780301 -29.671875 128.98583984 C-27.92411252 120.53540824 -26.05821877 112.11137212 -24.1875 103.6875 C-24.01564178 102.91317627 -23.84378357 102.13885254 -23.66671753 101.34106445 C-20.9816163 89.25865791 -18.21475776 77.19727489 -15.34643555 65.15698242 C-13.63415789 57.9212956 -12.09728596 50.67026481 -10.67236328 43.3737793 C-9.72641585 38.62721158 -8.64727592 33.91730815 -7.52587891 29.20947266 C-7.11495885 27.48299794 -6.70622453 25.75600295 -6.29833984 24.02880859 C-5.49362634 20.62263765 -4.68482425 17.21745924 -3.875 13.8125 C-3.60905029 12.6879541 -3.34310059 11.5634082 -3.0690918 10.40478516 C-2.81683838 9.34952637 -2.56458496 8.29426758 -2.3046875 7.20703125 C-1.9641333 5.77580933 -1.9641333 5.77580933 -1.61669922 4.31567383 C-1 2 -1 2 0 0 Z " fill="#4291A2" transform="translate(333,202)"/>
<path d="M0 0 C0.96808594 -0.01546875 1.93617188 -0.0309375 2.93359375 -0.046875 C12.89407427 0.00660409 20.65803375 2.94017674 27.9375 9.75 C29.80258539 11.83889564 30.83928587 13.7745542 31.5 16.5 C32.49 15.4790625 32.49 15.4790625 33.5 14.4375 C34.49659249 13.45486539 35.49703114 12.47612541 36.5 11.5 C37.08136719 10.9225 37.66273438 10.345 38.26171875 9.75 C38.89722656 9.151875 39.53273438 8.55375 40.1875 7.9375 C40.76886719 7.37933594 41.35023438 6.82117188 41.94921875 6.24609375 C49.35054704 1.17964085 56.67386723 -0.14833837 65.5 0 C66.42039062 -0.01546875 67.34078125 -0.0309375 68.2890625 -0.046875 C78.03179991 0.00801366 85.738787 3.01837924 92.8125 9.70703125 C100.21427447 17.57141662 101.59606296 26.60267485 101.65771484 37.07446289 C101.66797699 38.33589615 101.67823914 39.59732941 101.68881226 40.89698792 C101.69225018 41.56103701 101.6956881 42.2250861 101.69923019 42.90925789 C101.71113614 45.00766645 101.73061372 47.1058798 101.75234985 49.20420837 C101.81360048 55.16545088 101.8680413 61.12666501 101.90136719 67.08813477 C101.92236077 70.74683725 101.95768735 74.40516822 102.00212479 78.06365776 C102.01623245 79.45140645 102.02499535 80.83922068 102.02817917 82.22703743 C102.03311135 84.16975008 102.05792057 86.11238109 102.08349609 88.05493164 C102.09158295 89.15744766 102.0996698 90.25996368 102.10800171 91.39588928 C102.56222719 94.99275747 103.61295852 97.41730904 105.5 100.5 C107.9575436 101.63936688 107.9575436 101.63936688 110.6875 101.875 C113.0696875 102.184375 113.0696875 102.184375 115.5 102.5 C115.5 106.46 115.5 110.42 115.5 114.5 C99 114.5 82.5 114.5 65.5 114.5 C65.46132813 106.38857422 65.46132813 106.38857422 65.421875 98.11328125 C65.39667362 94.66336575 65.37031551 91.21353507 65.33984375 87.76367188 C65.2917107 82.30200004 65.24759088 76.84052486 65.22900391 71.37866211 C65.21372863 66.96933056 65.17909389 62.56051767 65.13169098 58.15141869 C65.11698825 56.47918423 65.10896545 54.80687567 65.10811615 53.1345768 C65.36791852 37.02822459 65.36791852 37.02822459 59.05316162 22.71528625 C55.37928728 19.84062793 50.93803463 20.06404375 46.5 20.5 C42.17040137 21.90963676 40.79127714 24.44512309 38.75 28.3125 C36.06140451 33.80029775 35.37928299 39.04867241 35.35473633 45.11889648 C35.34835648 46.19699081 35.34197662 47.27508514 35.33540344 48.385849 C35.33429062 49.53597977 35.3331778 50.68611053 35.33203125 51.87109375 C35.32870285 53.06678482 35.32537445 54.26247589 35.32194519 55.49440002 C35.31689149 58.01847958 35.31453638 60.54256578 35.31469727 63.06665039 C35.31250982 66.92019681 35.29433458 70.77345728 35.27539062 74.62695312 C35.27245655 77.08333236 35.27047185 79.53971295 35.26953125 81.99609375 C35.25875298 83.71825356 35.25875298 83.71825356 35.24775696 85.47520447 C35.26408031 91.21186183 35.5385929 96.0899757 37.5 101.5 C41.13 101.83 44.76 102.16 48.5 102.5 C48.5 106.46 48.5 110.42 48.5 114.5 C31.67 114.5 14.84 114.5 -2.5 114.5 C-2.53738281 108.84101563 -2.57476563 103.18203125 -2.61328125 97.3515625 C-2.64358261 93.75127252 -2.67474462 90.15103068 -2.70898438 86.55078125 C-2.76316499 80.8452405 -2.81428031 75.13979497 -2.84643555 69.43408203 C-2.8725809 64.83032455 -2.91306157 60.22688961 -2.96318626 55.62333298 C-2.97977939 53.87325449 -2.99134044 52.1231203 -2.99761391 50.3729744 C-2.43304463 35.76350268 -2.43304463 35.76350268 -7.91596985 22.81045532 C-11.06651944 20.20403114 -14.42948419 20.32629474 -18.3671875 20.171875 C-21.35023251 20.630805 -23.09200121 21.68815625 -25.5 23.5 C-27.12561512 25.97354485 -27.12561512 25.97354485 -28.25 28.8125 C-28.65734375 29.73675781 -29.0646875 30.66101563 -29.484375 31.61328125 C-31.17200225 36.41003717 -31.62470166 41.08898866 -31.66113281 46.15063477 C-31.67074036 47.23518448 -31.6803479 48.31973419 -31.69024658 49.43714905 C-31.69449646 50.59355392 -31.69874634 51.7499588 -31.703125 52.94140625 C-31.71167511 54.74205788 -31.71167511 54.74205788 -31.72039795 56.5790863 C-31.72982468 59.11155318 -31.73637266 61.64403219 -31.74023438 64.17651367 C-31.74997396 68.05213607 -31.78103385 71.92723553 -31.8125 75.80273438 C-31.81902725 78.26562186 -31.82427881 80.72851312 -31.828125 83.19140625 C-31.8404718 84.34983536 -31.8528186 85.50826447 -31.86553955 86.70179749 C-31.86253845 87.78319504 -31.85953735 88.86459259 -31.85644531 89.97875977 C-31.86009094 90.92662857 -31.86373657 91.87449738 -31.86749268 92.85108948 C-31.42662102 96.02892034 -30.36903569 97.91412339 -28.5 100.5 C-26.20370006 101.64814997 -24.42301914 101.80769809 -21.875 102.0625 C-19.709375 102.2790625 -19.709375 102.2790625 -17.5 102.5 C-17.5 106.46 -17.5 110.42 -17.5 114.5 C-39.61 114.5 -61.72 114.5 -84.5 114.5 C-84.5 110.54 -84.5 106.58 -84.5 102.5 C-81.73307292 102.14192708 -78.96614583 101.78385417 -76.19921875 101.42578125 C-73.37355551 100.73012809 -73.37355551 100.73012809 -71.8555603 98.40394592 C-70.16282553 94.77768877 -70.11910746 92.11038316 -70.11181641 88.11108398 C-70.10655945 87.38526123 -70.10130249 86.65943848 -70.09588623 85.91162109 C-70.08272918 83.52289028 -70.09140773 81.13483083 -70.1015625 78.74609375 C-70.09954074 77.08130262 -70.09662845 75.41651235 -70.09286499 73.75172424 C-70.08844766 70.26742091 -70.09485437 66.78334869 -70.10888672 63.29907227 C-70.1259917 58.83446868 -70.1161256 54.37040563 -70.09816933 49.9058218 C-70.0873268 46.46999541 -70.09077973 43.03429712 -70.0985527 39.59846687 C-70.10055273 37.95223997 -70.09810236 36.30600141 -70.09111404 34.65978813 C-70.0834902 32.35938588 -70.0951153 30.0598586 -70.11181641 27.75952148 C-70.11420319 26.45111801 -70.11658997 25.14271454 -70.11904907 23.79466248 C-70.52068813 20.32107827 -71.01713204 18.91280763 -73.5 16.5 C-77.13730068 15.38406983 -80.7152009 15.03432458 -84.5 14.5 C-84.5 10.54 -84.5 6.58 -84.5 2.5 C-68.66 2.5 -52.82 2.5 -36.5 2.5 C-34.97625318 6.30936706 -34.22113533 8.44732215 -33.875 12.3125 C-33.80023437 13.10269531 -33.72546875 13.89289063 -33.6484375 14.70703125 C-33.59945312 15.29871094 -33.55046875 15.89039063 -33.5 16.5 C-32.84 16.5 -32.18 16.5 -31.5 16.5 C-31.2525 15.4790625 -31.2525 15.4790625 -31 14.4375 C-27.48793172 7.55969962 -21.30818884 3.98440219 -14.28710938 1.30493164 C-9.52777551 -0.06958866 -4.92253916 -0.07865575 0 0 Z " fill="#489298" transform="translate(892.5,178.5)"/>
<path d="M0 0 C26.25103223 -0.18677706 52.50196508 -0.32790416 78.75352764 -0.41449738 C90.9422748 -0.45577063 103.13060941 -0.51205265 115.3190918 -0.60351562 C125.9410308 -0.68318527 136.5626711 -0.73484965 147.18490058 -0.75270796 C152.81090091 -0.76314929 158.43604658 -0.7877326 164.0617733 -0.84584045 C169.35529104 -0.90007482 174.64760084 -0.9169063 179.94137001 -0.90486145 C181.88569322 -0.90706539 183.83005612 -0.92302038 185.7741394 -0.9536438 C188.4275914 -0.99339687 191.0764708 -0.98391169 193.73002625 -0.96203613 C194.88713727 -0.99699023 194.88713727 -0.99699023 196.06762427 -1.03265047 C198.23005199 -0.98438263 198.23005199 -0.98438263 202 0 C204.18407409 2.43544918 205.59217624 5.06346519 207 8 C207.51828369 8.94182129 208.03656738 9.88364258 208.57055664 10.85400391 C209.01262451 11.71944824 209.45469238 12.58489258 209.91015625 13.4765625 C210.41869141 14.46527344 210.92722656 15.45398438 211.45117188 16.47265625 C211.98291016 17.51292969 212.51464844 18.55320312 213.0625 19.625 C217.27768266 27.80600298 221.56082457 35.93832131 226 44 C230.27866832 51.7774704 234.42603091 59.61341534 238.5 67.5 C242.61684891 75.46896445 246.80820957 83.3875003 251.125 91.25 C255.22342589 98.73093975 259.30456594 106.22009873 263.3125 113.75 C263.79928223 114.65008789 264.28606445 115.55017578 264.78759766 116.47753906 C265.22507324 117.30479492 265.66254883 118.13205078 266.11328125 118.984375 C266.69783081 120.07830566 266.69783081 120.07830566 267.29418945 121.19433594 C267.52710693 121.79020508 267.76002441 122.38607422 268 123 C267.67 123.66 267.34 124.32 267 125 C266.36650635 124.70569092 265.7330127 124.41138184 265.08032227 124.1081543 C261.90780481 122.63440911 258.73516548 121.1609265 255.5625 119.6875 C254.95498901 119.4053363 254.34747803 119.12317261 253.72155762 118.8324585 C245.52903279 115.02759847 237.33421671 111.227728 229.13671875 107.43359375 C213.13906365 100.02833461 197.14456095 92.61741791 181.1875 85.125 C164.42227391 77.25333432 147.62371222 69.45432278 130.81573486 61.67440796 C126.46030543 59.65833697 122.10508797 57.64180849 117.75 55.625 C116.87196716 55.21840149 115.99393433 54.81180298 115.08929443 54.3928833 C103.44216963 48.99820294 91.80636307 43.58028001 80.1875 38.125 C53.52376792 25.60741165 26.77302595 13.28167176 0 1 C0 0.67 0 0.34 0 0 Z " fill="#4291A2" transform="translate(36,0)"/>
<path d="M0 0 C10.28471269 -0.06996727 20.56936738 -0.12304594 30.85427094 -0.15543652 C35.6316121 -0.17099396 40.40878867 -0.19204741 45.18603516 -0.22631836 C49.8091134 -0.25927018 54.43203481 -0.27692728 59.05522156 -0.28463173 C60.80598921 -0.29011175 62.55674974 -0.30080958 64.30744934 -0.31719017 C84.26112966 -0.49621082 102.38135058 1.55517844 117.6875 15.4375 C125.22711637 23.79221004 128.58518237 31.90658734 128.4375 43.25 C128.42614014 44.4872583 128.42614014 44.4872583 128.41455078 45.74951172 C128.05697819 59.1571787 123.48655314 69.97327405 113.8125 79.25 C104.5701769 86.98775887 93.49194854 89.4573129 82 92 C81.30310059 92.18014648 80.60620117 92.36029297 79.88818359 92.54589844 C75.65356601 93.2116963 71.46627853 93.10397958 67.1875 93.0625 C66.30384766 93.05798828 65.42019531 93.05347656 64.50976562 93.04882812 C62.33981441 93.03709866 60.16989828 93.01916495 58 93 C58.0688791 98.48140602 58.15684674 103.96204937 58.26245117 109.44287109 C58.29568784 111.30704282 58.32372373 113.17131487 58.34643555 115.03564453 C58.38000488 117.71690591 58.43232109 120.39724896 58.48828125 123.078125 C58.49467117 123.91055725 58.5010611 124.7429895 58.50764465 125.60064697 C58.59442055 129.02232363 58.71455671 131.42644572 60.25390625 134.51953125 C62.43453316 136.36842968 63.61035947 136.53316401 66.44921875 136.609375 C67.29677734 136.64160156 68.14433594 136.67382812 69.01757812 136.70703125 C69.89865234 136.72121094 70.77972656 136.73539063 71.6875 136.75 C72.58017578 136.77964844 73.47285156 136.80929687 74.39257812 136.83984375 C76.59456583 136.91049576 78.79728876 136.95751762 81 137 C81 140.96 81 144.92 81 149 C54.6 149 28.2 149 1 149 C1 145.37 1 141.74 1 138 C2.69125 137.9175 4.3825 137.835 6.125 137.75 C11.29483816 137.28364862 14.13633722 136.45696144 18 133 C18.94645753 130.16062741 19.12962447 128.40190252 19.14044189 125.45889282 C19.14615204 124.52802353 19.15186218 123.59715424 19.15774536 122.63807678 C19.15886322 121.61878586 19.15998108 120.59949493 19.16113281 119.54931641 C19.16609772 118.47426346 19.17106262 117.39921051 19.17617798 116.2915802 C19.19080663 112.7282345 19.19760245 109.16493331 19.203125 105.6015625 C19.20887543 103.12918089 19.21463318 100.6567993 19.22039795 98.18441772 C19.23090964 92.99761751 19.23675136 87.81083281 19.24023438 82.62402344 C19.24572246 75.97358361 19.26975654 69.32341414 19.29820633 62.67302895 C19.31681659 57.56527098 19.32203743 52.45756242 19.32357025 47.34977341 C19.32660044 44.8977382 19.33464123 42.44570394 19.34775543 39.99370193 C19.36478344 36.56546654 19.36294347 33.13773302 19.35644531 29.70947266 C19.3656601 28.69423019 19.37487488 27.67898773 19.3843689 26.63298035 C19.36323432 19.81726266 19.36323432 19.81726266 16 14 C13.0384304 12.5192152 10.16493705 12.64685963 6.875 12.4375 C5.59367188 12.35371094 4.31234375 12.26992187 2.9921875 12.18359375 C2.00476563 12.12300781 1.01734375 12.06242188 0 12 C0 8.04 0 4.08 0 0 Z " fill="#878181" transform="translate(1018,144)"/>
<path d="M0 0 C0 62.04 0 124.08 0 188 C-20.64583072 178.82407524 -20.64583072 178.82407524 -27.0859375 175.73828125 C-27.82767715 175.38548096 -28.56941681 175.03268066 -29.33363342 174.66918945 C-30.88806086 173.92970052 -32.44204363 173.18927614 -33.99557495 172.44790649 C-38.13919471 170.47066717 -42.28630742 168.5007845 -46.43359375 166.53125 C-47.25680618 166.14020584 -48.08001862 165.74916168 -48.92817688 165.3462677 C-56.07657837 161.95483313 -63.25249639 158.6257242 -70.4375 155.3125 C-80.54975877 150.64261306 -90.60095949 145.85556017 -100.625 141 C-101.27757782 140.68398834 -101.93015564 140.36797668 -102.60250854 140.04238892 C-110.09361209 136.41187726 -117.56593939 132.74616233 -125 129 C-123.93012423 125.79037268 -123.41610306 125.30094163 -120.875 123.3125 C-118.21085735 121.13139774 -115.93044753 118.87615637 -113.70898438 116.24804688 C-110.2338013 112.22080088 -106.56638599 108.45322404 -102.78125 104.71875 C-102.11967896 104.06096558 -101.45810791 103.40318115 -100.77648926 102.72546387 C-97.98421856 99.94933442 -95.18594584 97.17928463 -92.38818359 94.40869141 C-90.32959102 92.3683292 -88.27412097 90.32485669 -86.21875 88.28125 C-85.59875122 87.66954956 -84.97875244 87.05784912 -84.33996582 86.4276123 C-80.62769911 82.7358678 -77.14715825 78.91078383 -73.72497559 74.9498291 C-71.01689321 71.88874355 -68.12856141 69.0241585 -65.21875 66.15625 C-64.60157104 65.54285767 -63.98439209 64.92946533 -63.34851074 64.29748535 C-60.74741211 61.71250482 -58.14029986 59.13362178 -55.53369141 56.55419922 C-46.33046305 47.48249185 -46.33046305 47.48249185 -37.67382812 37.89648438 C-33.19036823 32.81662492 -28.20725804 28.17431389 -23.3828125 23.421875 C-18.90601444 18.98589881 -14.5865492 14.49904534 -10.48339844 9.71484375 C-8.61507301 7.55501527 -6.64797159 5.51497565 -4.625 3.5 C-3.95726562 2.8296875 -3.28953125 2.159375 -2.6015625 1.46875 C-1 0 -1 0 0 0 Z " fill="#969495" transform="translate(477,18)"/>
<path d="M0 0 C61.71 0 123.42 0 187 0 C183.29113038 4.32701455 179.75661542 8.36512472 175.74829102 12.34936523 C175.0176947 13.07777115 175.0176947 13.07777115 174.27233887 13.82089233 C173.22754489 14.8619178 172.18159882 15.90178811 171.13458443 16.94058037 C169.4704951 18.59174541 167.80969042 20.24615443 166.14964294 21.90138245 C162.02754281 26.01020996 157.89999728 30.11355297 153.77258301 34.21704102 C150.2766567 37.69311905 146.78286662 41.17131862 143.29179192 44.65226936 C141.66823992 46.26941528 140.04166925 47.88348027 138.41493225 49.49742126 C132.34168107 55.53246729 132.34168107 55.53246729 126.60888672 61.88891602 C121.30829853 68.08198578 115.40131415 73.72100595 109.62890625 79.46875 C108.33831715 80.75747072 107.0479511 82.04641485 105.75779724 83.33557129 C102.38499816 86.70457828 99.00920538 90.07056955 95.63275146 93.43591309 C92.17846255 96.87991623 88.72705315 100.32680249 85.27539062 103.7734375 C78.51972087 110.51842839 71.76088066 117.26023258 65 124 C62.62763078 121.82897616 61.18636936 119.75722912 59.73852539 116.89355469 C59.10562088 115.65265579 59.10562088 115.65265579 58.45993042 114.38668823 C58.01037994 113.49079987 57.56082947 112.5949115 57.09765625 111.671875 C56.62361359 110.73900665 56.14957092 109.80613831 55.66116333 108.84500122 C54.12311379 105.81592088 52.59292308 102.78293952 51.0625 99.75 C49.48642591 96.6429356 47.90823155 93.53695413 46.32997131 90.43099976 C45.29555645 88.39490333 44.2618098 86.35846729 43.22874451 84.32168579 C39.59069058 77.15026586 35.91937704 69.99814881 32.1875 62.875 C31.73060791 62.00262695 31.27371582 61.13025391 30.80297852 60.23144531 C29.53757285 57.81976946 28.26939451 55.40957829 27 53 C26.16274706 51.4088612 25.32550749 49.81771536 24.48828125 48.2265625 C23.25861647 45.89019943 22.02851709 43.55407137 20.796875 41.21875 C18.4816076 36.82644208 16.17875927 32.42791572 13.88671875 28.0234375 C13.35498047 27.00185547 12.82324219 25.98027344 12.27539062 24.92773438 C11.24824924 22.95304559 10.22213775 20.97782062 9.19726562 19.00195312 C6.5268001 13.8681194 3.79023803 8.79213146 0.89379883 3.78173828 C0 2 0 2 0 0 Z " fill="#969495" transform="translate(270,0)"/>
<path d="M0 0 C1.19882812 -0.01611328 2.39765625 -0.03222656 3.6328125 -0.04882812 C19.42445853 -0.05739192 32.42029003 3.98167519 43.98828125 14.9140625 C55.79057771 27.42979657 58.79166715 43.91585318 58.59863281 60.59008789 C58.09095049 76.75072902 54.16642424 92.28783648 42.6953125 104.34375 C37.76081645 108.3165711 32.03497534 110.817427 26.25 113.3125 C25.44949219 113.68503906 24.64898438 114.05757813 23.82421875 114.44140625 C16.25308903 117.00341221 7.89700411 116.55955521 0 116.625 C-1.72669922 116.66850586 -1.72669922 116.66850586 -3.48828125 116.71289062 C-17.76064167 116.81747951 -30.55093137 111.66930335 -41.16015625 102.05859375 C-51.39637021 90.81636367 -55.14228025 74.8990404 -55 60.125 C-54.99250732 59.10559326 -54.98501465 58.08618652 -54.97729492 57.03588867 C-54.73983675 40.37003931 -51.78213811 25.88569724 -40.01171875 13.48046875 C-28.49132606 2.53251793 -15.30375423 -0.04061506 0 0 Z " fill="#489299" transform="translate(736.75,178.6875)"/>
<path d="M0 0 C4.95213787 1.51708967 9.4888428 3.54872025 14.140625 5.7890625 C14.92728546 6.16434586 15.71394592 6.53962921 16.52444458 6.92628479 C18.21760101 7.73444944 19.9100118 8.54417775 21.60174561 9.35531616 C25.20483583 11.0827882 28.811588 12.80254871 32.41818237 14.52268982 C34.26514202 15.40363338 36.11192236 16.28495296 37.95852661 17.16664124 C46.41650428 21.20387876 54.89219342 25.20274993 63.375 29.1875 C64.74911068 29.83323948 66.1232155 30.47899143 67.49731445 31.12475586 C69.55654134 32.09242592 71.6158056 33.06001602 73.67518616 34.02735901 C78.88036301 36.4726455 84.08310626 38.92306952 89.28515625 41.375 C91.59244935 42.46216783 93.89976804 43.54928133 96.20709229 44.63638306 C97.66745028 45.32460119 99.12770025 46.0130486 100.58782959 46.70175171 C102.61942666 47.65993061 104.65146719 48.61716342 106.68359375 49.57421875 C107.83400146 50.11651123 108.98440918 50.65880371 110.16967773 51.2175293 C115.09806099 53.51099135 120.05134549 55.75061159 125 58 C125 115.42 125 172.84 125 232 C122.64211777 228.85615703 120.85073094 226.04452326 119.0234375 222.609375 C118.44376221 221.52350098 117.86408691 220.43762695 117.2668457 219.31884766 C116.6361816 218.12925768 116.00556784 216.93964101 115.375 215.75 C114.71277878 214.50684148 114.05025615 213.26384348 113.38745117 212.02099609 C111.25346058 208.01656222 109.12618821 204.00858081 107 200 C106.27588084 198.63509012 105.55175975 197.27018126 104.82763672 195.90527344 C104.28921394 194.89030289 104.28921394 194.89030289 103.73991394 193.85482788 C102.29267097 191.12668097 100.84530441 188.39859967 99.39779663 185.67059326 C98.67094037 184.30059705 97.94423682 182.93051981 97.21768188 181.56036377 C92.88284107 173.38713141 88.51551009 165.23467328 84.0625 157.125 C78.61007256 147.19250418 73.31116041 137.18122312 68.0189209 127.1628418 C61.00376922 113.88308857 53.93126719 100.63548394 46.82666016 87.40332031 C43.71409627 81.60418364 40.60741118 75.80189878 37.5 70 C36.25132016 67.66926115 35.00262226 65.33853197 33.75390625 63.0078125 C31.55604096 58.90520695 29.35864988 54.80234842 27.16204834 50.69906616 C19.89354472 37.12149766 12.61277447 23.55072328 5.30249023 9.99560547 C4.75149658 8.97354004 4.20050293 7.95147461 3.6328125 6.8984375 C2.90408936 5.54758057 2.90408936 5.54758057 2.16064453 4.16943359 C1.42222553 2.78920826 0.70004065 1.40008131 0 0 Z " fill="#4291A2" transform="translate(352,178)"/>
<path d="M0 0 C11.22 0 22.44 0 34 0 C38.69122869 12.33591773 43.12368495 24.75062238 47.48843384 37.20544434 C48.71450783 40.70202226 49.94414158 44.19733166 51.17456055 47.69238281 C55.12763333 58.92762589 59.06489399 70.16785239 62.95433044 81.42526245 C64.65766413 86.35179996 66.3691779 91.27547717 68.08145142 96.19891357 C68.89561835 98.54746194 69.70572593 100.89742188 70.51156616 103.24884033 C71.63949298 106.53929685 72.78121262 109.82467676 73.92578125 113.109375 C74.25011139 114.06756134 74.57444153 115.02574768 74.90859985 116.01296997 C77.47402476 123.30841475 80.44862766 131.55843151 87 136.0625 C90.00371453 137.00116079 92.87604411 137.62810049 96 138 C96 141.63 96 145.26 96 149 C71.91 149 47.82 149 23 149 C23 145.04 23 141.08 23 137 C24.35544922 136.92652344 24.35544922 136.92652344 25.73828125 136.8515625 C26.91777344 136.77679688 28.09726563 136.70203125 29.3125 136.625 C31.07013672 136.52058594 31.07013672 136.52058594 32.86328125 136.4140625 C36.15699887 136.21386253 36.15699887 136.21386253 39 134 C40.4785249 126.83557506 38.07087591 120.15843453 35.5 113.5625 C34.83985054 111.81527044 34.18342403 110.06662838 33.53125 108.31640625 C33.23798828 107.55787354 32.94472656 106.79934082 32.64257812 106.01782227 C32 104 32 104 32 101 C15.5 101 -1 101 -18 101 C-18.99 104.63 -19.98 108.26 -21 112 C-21.70753963 114.04926194 -22.43198855 116.09293473 -23.1875 118.125 C-24.97070278 123.3789576 -25.52634754 127.47335087 -25 133 C-24.34 133.99 -23.68 134.98 -23 136 C-20.390379 136.38411275 -17.9941926 136.60293197 -15.375 136.6875 C-14.66859375 136.72166016 -13.9621875 136.75582031 -13.234375 136.79101562 C-11.49014312 136.87351308 -9.74509605 136.93843335 -8 137 C-8 140.96 -8 144.92 -8 149 C-26.15 149 -44.3 149 -63 149 C-63 145.04 -63 141.08 -63 137 C-61.453125 136.79375 -59.90625 136.5875 -58.3125 136.375 C-54.17268826 135.51205333 -51.57061528 134.63077124 -49.05786133 130.98681641 C-44.22882999 121.9171979 -41.01089301 111.86627759 -37.453125 102.23974609 C-36.63599232 100.02972981 -35.81439122 97.82141519 -34.9921875 95.61328125 C-32.10871204 87.84673563 -29.30698719 80.05677245 -26.58984375 72.23046875 C-22.87124537 61.52873349 -18.91606448 50.91980074 -14.9375 40.3125 C-13.5697185 36.66346704 -12.2035817 33.0138274 -10.83984375 29.36328125 C-10.51301605 28.48858185 -10.18618835 27.61388245 -9.84945679 26.712677 C-7.43001399 20.21290046 -5.09230952 13.68696733 -2.81712341 7.1353302 C-1.09652052 2.19304103 -1.09652052 2.19304103 0 0 Z " fill="#878181" transform="translate(1204,144)"/>
<path d="M0 0 C25.08 0 50.16 0 76 0 C76 3.96 76 7.92 76 12 C74.2675 12.2475 72.535 12.495 70.75 12.75 C67.55875061 13.36196417 65.18624377 13.90038124 62.3125 15.4375 C60.08406312 19.78825772 60.4277274 24.21740902 61 29 C62.35082713 33.09331952 64.25160018 36.8127718 66.25 40.625 C67.34708474 42.80692448 68.44341546 44.98922823 69.5390625 47.171875 C70.39226074 48.84540039 70.39226074 48.84540039 71.26269531 50.55273438 C74.14880565 56.27953003 76.87719474 62.08093555 79.625 67.875 C80.61441931 69.95704691 81.60639205 72.03788337 82.6015625 74.1171875 C83.01744629 74.98972168 83.43333008 75.86225586 83.86181641 76.76123047 C85.04014755 79.18739246 85.04014755 79.18739246 87 82 C87.49886719 80.86949219 87.99773437 79.73898438 88.51171875 78.57421875 C92.02682607 70.66481021 95.59141386 62.79161254 99.38671875 55.01171875 C100.2526062 53.23631714 100.2526062 53.23631714 101.13598633 51.42504883 C102.27366016 49.10258425 103.41777882 46.78326285 104.5690918 44.4675293 C111.2580555 31.28812928 111.2580555 31.28812928 111 17 C107.80740092 13.78454222 104.64489246 13.38383602 100.25 12.8125 C99.07953125 12.65394531 97.9090625 12.49539062 96.703125 12.33203125 C95.81109375 12.22246094 94.9190625 12.11289063 94 12 C94 8.04 94 4.08 94 0 C112.48 0 130.96 0 150 0 C150 3.96 150 7.92 150 12 C147.8515625 12.29296875 145.703125 12.5859375 143.5546875 12.87890625 C137.15058431 15.68926958 133.69127174 22.87800532 130.70703125 28.87890625 C130.32264389 29.63101883 129.93825653 30.38313141 129.54222107 31.15803528 C128.28744255 33.6205501 127.04799698 36.09025901 125.8125 38.5625 C124.04416386 42.09825674 122.27494169 45.63356314 120.50390625 49.16796875 C120.0536911 50.06936584 119.60347595 50.97076294 119.13961792 51.8994751 C116.07789138 57.98700951 112.82552434 63.93673138 109.46484375 69.86328125 C98.17785606 90.06962377 91.69540131 107.54242247 96 131 C97.00475842 133.45131085 97.53051054 134.65994922 99.671875 136.2109375 C102.86791407 137.2941588 105.88586219 137.43810345 109.25 137.625 C110.51328125 137.69976562 111.7765625 137.77453125 113.078125 137.8515625 C114.52445313 137.92503906 114.52445313 137.92503906 116 138 C116 141.63 116 145.26 116 149 C89.27 149 62.54 149 35 149 C35 145.04 35 141.08 35 137 C36.03640625 136.93941406 37.0728125 136.87882813 38.140625 136.81640625 C39.51042873 136.73196629 40.88021975 136.64732003 42.25 136.5625 C42.93191406 136.52318359 43.61382813 136.48386719 44.31640625 136.44335938 C47.64448041 136.23333528 50.80255402 135.98065998 54 135 C59.43386765 119.04376999 58.36016731 102.46247275 51.22427368 87.4087677 C47.43458728 79.74482192 43.27359762 72.2797999 39.04394531 64.85217285 C37.20674532 61.59260368 35.48592686 58.27434531 33.765625 54.95214844 C32.65322988 52.80450204 31.51604703 50.67159224 30.375 48.5390625 C28.47976362 44.95935309 26.66948432 41.34216754 24.875 37.7109375 C24.06554932 36.07366699 24.06554932 36.07366699 23.23974609 34.40332031 C22.19024576 32.27258393 21.1459995 30.13924872 20.10791016 28.00292969 C16.34217284 19.99566812 16.34217284 19.99566812 10.25 13.75 C6.87431002 12.62477001 3.53877808 12.35387781 0 12 C0 8.04 0 4.08 0 0 Z " fill="#878181" transform="translate(1286,144)"/>
<path d="M0 0 C1.62808594 -0.01063477 1.62808594 -0.01063477 3.2890625 -0.02148438 C15.22427846 0.07109188 25.20953573 2.50755399 35 9.4375 C35.64839844 9.88996094 36.29679687 10.34242188 36.96484375 10.80859375 C46.26459366 17.99198919 50.39248149 29.18487042 52 40.4375 C52 47.3675 52 54.2975 52 61.4375 C29.56 61.4375 7.12 61.4375 -16 61.4375 C-14.01155099 80.41158491 -14.01155099 80.41158491 -3.5625 95.5625 C3.42434262 99.64828405 11.05991525 100.52465097 19 99.4375 C28.67148061 96.22155535 34.46581889 90.73877166 40 82.4375 C42.89456511 83.73506367 45.02044663 84.93525557 47 87.4375 C47.88354942 92.50795927 47.63320728 97.09510056 45.4375 101.75 C36.6893365 111.39541104 26.87951221 115.78863211 13.85522461 116.64404297 C10.44281728 116.74101633 7.0387108 116.75956758 3.625 116.75 C2.48289062 116.76611328 1.34078125 116.78222656 0.1640625 116.79882812 C-14.00331784 116.80687777 -27.55751332 113.38458856 -38.12109375 103.50390625 C-44.76626264 96.195602 -48.49522587 87.90277711 -51 78.4375 C-51.33837891 77.2 -51.33837891 77.2 -51.68359375 75.9375 C-55.99618472 56.90261574 -53.29547697 36.07439394 -43 19.4375 C-33.11713737 5.01050706 -16.81190807 -0.30948287 0 0 Z " fill="#489198" transform="translate(1612,178.5625)"/>
<path d="M0 0 C4.92711607 3.02150672 7.2335239 6.38807169 9.0625 11.875 C9.79894002 19.18275094 8.61763657 24.73583222 3.875 30.5625 C-3.55400708 36.67079471 -10.54031162 38.03427438 -19.9375 37.875 C-20.02386719 37.06675781 -20.11023437 36.25851563 -20.19921875 35.42578125 C-21.07640839 28.6268 -21.07640839 28.6268 -24.1875 22.625 C-27.51006076 20.51064315 -29.06788295 20.23006382 -32.9375 20.875 C-36.73593873 22.32202428 -37.87865168 23.78153502 -40.0625 27.25 C-45.55152765 39.64863113 -45.40841345 52.30154609 -45.32861328 65.60668945 C-45.31241198 68.83001228 -45.32859078 72.05210389 -45.34765625 75.27539062 C-45.34567577 77.33854441 -45.34183614 79.40169744 -45.3359375 81.46484375 C-45.34504654 82.89932106 -45.34504654 82.89932106 -45.3543396 84.36277771 C-45.29924835 89.59759075 -44.92467825 93.37235522 -41.9375 97.875 C-38.89536733 99.39606634 -35.65702428 99.24929338 -32.3125 99.4375 C-31.25289062 99.50227539 -31.25289062 99.50227539 -30.171875 99.56835938 C-28.42731463 99.67444751 -26.68243303 99.77522889 -24.9375 99.875 C-24.9375 103.835 -24.9375 107.795 -24.9375 111.875 C-49.0275 111.875 -73.1175 111.875 -97.9375 111.875 C-97.9375 107.915 -97.9375 103.955 -97.9375 99.875 C-96.184375 99.6275 -94.43125 99.38 -92.625 99.125 C-88.40930353 98.56319928 -88.40930353 98.56319928 -85.14453125 96.046875 C-82.82081741 91.86569411 -82.80383047 88.02796066 -82.77636719 83.28979492 C-82.76891983 82.31092064 -82.76891983 82.31092064 -82.76132202 81.31227112 C-82.74675462 79.1599928 -82.73990727 77.00778821 -82.734375 74.85546875 C-82.7286188 73.35337829 -82.72286113 71.85128784 -82.71710205 70.34919739 C-82.70660728 67.20113789 -82.70075475 64.05310382 -82.69726562 60.9050293 C-82.69178605 56.88352699 -82.66776332 52.86236413 -82.63929367 48.84096813 C-82.62061162 45.73788999 -82.61545873 42.63489269 -82.61392975 39.53176308 C-82.61091491 38.04988056 -82.60292607 36.56799906 -82.58974457 35.0861721 C-82.57256758 33.00665298 -82.57459202 30.92795118 -82.58105469 28.84838867 C-82.57558624 27.07778328 -82.57558624 27.07778328 -82.57000732 25.27140808 C-83.01484073 21.16020836 -84.02290094 18.53564597 -85.9375 14.875 C-88.59917317 13.40782779 -88.59917317 13.40782779 -91.625 12.9375 C-93.378125 12.586875 -95.13125 12.23625 -96.9375 11.875 C-96.9375 7.915 -96.9375 3.955 -96.9375 -0.125 C-81.7575 -0.125 -66.5775 -0.125 -50.9375 -0.125 C-49.6175 5.485 -48.2975 11.095 -46.9375 16.875 C-44.52502626 13.85940782 -42.26910604 10.94787525 -40.0625 7.8125 C-31.46315183 -3.6604997 -12.73834819 -5.92171343 0 0 Z " fill="#489198" transform="translate(1537.9375,181.125)"/>
<path d="M0 0 C1.79630859 0.00193359 1.79630859 0.00193359 3.62890625 0.00390625 C16.04901901 0.12633891 29.14662616 1.41160651 38.4375 10.4375 C42.702502 14.90845783 43.30872886 18.70516706 43.203125 24.7421875 C42.64977411 29.18216968 41.03445422 32.22255122 37.875 35.375 C31.51137508 39.50775803 25.68161818 41.52745974 18.125 41.4375 C17.14015625 41.42847656 16.1553125 41.41945312 15.140625 41.41015625 C14.39296875 41.39855469 13.6453125 41.38695312 12.875 41.375 C12.71064453 39.76431641 12.71064453 39.76431641 12.54296875 38.12109375 C12.38338413 36.6848322 12.22319558 35.24863767 12.0625 33.8125 C11.99224609 33.10802734 11.92199219 32.40355469 11.84960938 31.67773438 C11.16516785 25.73678197 9.66428513 20.86721857 6.125 15.9375 C2.8232818 13.64464014 0.81125559 13.76420172 -3.125 14.375 C-8.82964501 17.84252932 -11.15641638 22.09373264 -13.125 28.375 C-15.05371588 38.14199189 -15.51291319 47.87979488 -15.5 57.8125 C-15.49978851 58.48999298 -15.49957703 59.16748596 -15.49935913 59.86550903 C-15.46026327 72.42343339 -15.11837173 86.53519328 -6.125 96.375 C-0.42843646 100.71523889 6.48030912 99.89117903 13.26953125 99.09375 C23.80168905 97.17545856 30.32120942 91.57170266 36.875 83.375 C39.3105113 84.34920452 40.6413942 85.03112066 42.1328125 87.2265625 C43.44608601 91.02814371 42.78913216 94.5235461 41.875 98.375 C37.2344377 107.47764144 29.10292519 111.82797209 19.875 115.375 C14.09786307 117.17071541 7.8594793 116.60118118 1.875 116.625 C0.61042969 116.645625 -0.65414062 116.66625 -1.95703125 116.6875 C-16.78699172 116.7485915 -29.22269411 113.57252969 -40.27734375 103.375 C-54.21591906 88.28715527 -53.68889526 67.71764156 -53.25244141 48.51367188 C-52.72575088 35.54215194 -48.26519025 22.40351078 -39.25 12.8125 C-28.09887201 2.79357466 -14.6608289 -0.30179388 0 0 Z " fill="#489198" transform="translate(622.125,178.625)"/>
<path d="M0 0 C5.11233668 2.04493467 8.684545 6.11360908 10.9453125 11.07421875 C14.50454024 20.97440077 14.21387005 31.42104897 14.24023438 41.80859375 C14.2498918 44.09933476 14.28097443 46.38915772 14.3125 48.6796875 C14.40445109 61.325391 14.40206574 76.3680549 5 86 C0.40152743 88.99142742 -4.71851664 88.58341967 -10 88 C-15.63162823 85.70563294 -17.5486316 81.82126919 -19.96875 76.515625 C-27.59658884 57.90832116 -27.09624637 28.95400646 -19.8984375 10.1171875 C-15.56188309 1.41610091 -9.48374 -1.28889755 0 0 Z " fill="#FDFDFE" transform="translate(743,193)"/>
<path d="M0 0 C10.42501002 0 17.87343688 0.08554901 25.49609375 7.1953125 C33.17412908 16.40895489 32.42123194 28.71541801 32 40 C31.22385863 48.27144951 28.48007595 56.33181184 22.6875 62.4375 C14.52756387 67.18164891 10.09582455 67 0 67 C0 44.89 0 22.78 0 0 Z " fill="#FBFBFB" transform="translate(1075,157)"/>
<path d="M0 0 C2.67783277 2.67783277 3.00336381 5.54781058 3.8125 9.125 C5.61622586 16.68677381 7.82752424 24.07504524 10.19482422 31.47802734 C11.9181353 36.87578461 13.62051271 42.27984898 15.3125 47.6875 C15.6744043 48.82300293 16.03630859 49.95850586 16.40917969 51.12841797 C16.91239746 52.74127686 16.91239746 52.74127686 17.42578125 54.38671875 C17.72911377 55.34795654 18.03244629 56.30919434 18.3449707 57.29956055 C19 60 19 60 19 65 C6.13 65 -6.74 65 -20 65 C-18.64479886 58.90159487 -17.20556869 53.27343645 -15.13671875 47.44140625 C-14.86285843 46.6533812 -14.58899811 45.86535614 -14.30683899 45.05345154 C-13.15272794 41.73256271 -11.98738642 38.4156587 -10.8215332 35.09887695 C-6.75550948 23.50429295 -3.13901961 11.88043502 0 0 Z " fill="#FCFCFC" transform="translate(1211,166)"/>
<path d="M0 0 C4.26428155 1.8413943 5.84122619 3.97604562 8 8 C8.94921875 10.65625 8.94921875 10.65625 9.6875 13.5 C9.93886719 14.4178125 10.19023438 15.335625 10.44921875 16.28125 C11.26615531 21.79702025 11 27.42406 11 33 C0.77 33 -9.46 33 -20 33 C-20 21.13234132 -19.81121016 12.8111789 -12.59765625 3.55859375 C-8.78161782 -0.16414301 -5.21930567 -0.45783383 0 0 Z " fill="#FCFDFD" transform="translate(1617,193)"/>
</svg>
